# xmcd
#
# Track frame offsets: 
#        150
#        16890
#        28655
#        43070
#        59905
#        73187
#        85977
#        100445
#        114577
#        125825
#        141692
#        158607
#
# Disc length: 2296 seconds
#
# Revision: 1
# Processed by: cddbd v1.5.2PL0 Copyright (c) Steve Scherf et al.
# Submitted via: ExactAudioCopy v0.99pb5
#
DISCID=b708f60c
DTITLE=Greyhounds - San Antonio Lady
DYEAR=1995
DGENRE=Country
TTITLE0=San Antonio Lady
TTITLE1=Nimm Es Leicht
TTITLE2=Asphalt Cowboy
TTITLE3=Juanita
TTITLE4=Sonne Weck Mich Auf
TTITLE5=Country Fan
TTITLE6=Country Songs and Honky Tonks
TTITLE7=Locker Vom Hocker
TTITLE8=Stand Up
TTITLE9=Girls Aus Germany
TTITLE10=Happy Birthday Baby
TTITLE11=Ich Liebe Meinen Truck
EXTD=
EXTT0=
EXTT1=
EXTT2=
EXTT3=
EXTT4=
EXTT5=
EXTT6=
EXTT7=
EXTT8=
EXTT9=
EXTT10=
EXTT11=
PLAYORDER=
